<?xml version="1.0" encoding="utf-8"?><svg xmlns="http://www.w3.org/2000/svg" width="253" height="344" preserveAspectRatio="xMidYMid" xmlns:xlink="http://www.w3.org/1999/xlink" style="margin-right:-2px;display:block;background-repeat-y:initial;background-repeat-x:initial;animation-play-state:paused" ><style type="text/css" style="animation-play-state:paused" >text {
    text-anchor: middle; font-size: 34px; opacity: 0;
  }</style>


<g style="transform-origin:126.5px 172px;transform:matrix(0.425, 0, 0, 0.425, 0, 0);animation-play-state:paused" ><g transform="translate(126.5,172) scale(2)" style="transform:matrix(2, 0, 0, 2, 126.5, 172);animation-play-state:paused" ><g transform="matrix(1,0,0,1,0,0)" style="transform:matrix(1, 0, 0, 1, 0, 0);animation-play-state:paused" ><g transform="translate(-50,-50)" style="transform:matrix(1, 0, 0, 1, -50, -50);animation-play-state:paused" ><circle cx="50" cy="50" r="21.4" fill="#ffda8b" style="animation-play-state:paused" ></circle>

  
<line x1="50" y1="10" x2="50" y2="21.8" stroke-width="3" stroke="#ffda8b" stroke-linecap="round" style="animation-play-state:paused" ></line>

  
<line x1="30" y1="15.4" x2="35.9" y2="25.6" stroke-width="3" stroke="#ffda8b" stroke-linecap="round" style="animation-play-state:paused" ></line>

  
<line x1="15.4" y1="30" x2="25.6" y2="35.9" stroke-width="3" stroke="#ffda8b" stroke-linecap="round" style="animation-play-state:paused" ></line>

  
<line x1="10" y1="50" x2="21.8" y2="50" stroke-width="3" stroke="#ffda8b" stroke-linecap="round" style="animation-play-state:paused" ></line>

  
<line x1="15.4" y1="70" x2="25.6" y2="64.1" stroke-width="3" stroke="#ffda8b" stroke-linecap="round" style="animation-play-state:paused" ></line>

  
<line x1="30" y1="84.6" x2="35.9" y2="74.4" stroke-width="3" stroke="#ffda8b" stroke-linecap="round" style="animation-play-state:paused" ></line>

  
<line x1="50" y1="90" x2="50" y2="78.2" stroke-width="3" stroke="#ffda8b" stroke-linecap="round" style="animation-play-state:paused" ></line>

  
<line x1="70" y1="84.6" x2="64.1" y2="74.4" stroke-width="3" stroke="#ffda8b" stroke-linecap="round" style="animation-play-state:paused" ></line>

  
<line x1="84.6" y1="70" x2="74.4" y2="64.1" stroke-width="3" stroke="#ffda8b" stroke-linecap="round" style="animation-play-state:paused" ></line>

  
<line x1="90" y1="50" x2="78.2" y2="50" stroke-width="3" stroke="#ffda8b" stroke-linecap="round" style="animation-play-state:paused" ></line>

  
<line x1="84.6" y1="30" x2="74.4" y2="35.9" stroke-width="3" stroke="#ffda8b" stroke-linecap="round" style="animation-play-state:paused" ></line>

  
<line x1="70" y1="15.4" x2="64.1" y2="25.6" stroke-width="3" stroke="#ffda8b" stroke-linecap="round" style="animation-play-state:paused" ></line></g></g></g>



<g transform="translate(126.5,172)" style="transform:matrix(1, 0, 0, 1, 126.5, 172);animation-play-state:paused" ><g transform="translate(0,0)" style="transform:matrix(1, 0, 0, 1, 0, 0);animation-play-state:paused" ><g class="path" style="transform-origin:-235.84px -6.94863px;transform:matrix(1.01117, 0, 0, 1.01117, 0, 0);animation-timing-function:linear;animation-play-state:paused;animation-name:breath-9506a63b-b4a7-4032-9c1f-9bb6b301dc7e;animation-iteration-count:infinite;animation-fill-mode:forwards;animation-duration:1.92308s;animation-delay:-1.12821s" ><path d="M46.80-62.24L60.32-13.12L63.52-13.12L63.52 0L32.16 0L32.16-13.12L36.96-13.12L35.68-19.52L24.80-19.52L23.52-13.12L28.32-13.12L28.32 0L0.96 0L0.96-13.12L4.16-13.12L17.68-62.24L46.80-62.24zM29.84-43.92L26.56-28L33.92-28L30.64-43.92L29.84-43.92" fill="#ffffff" stroke="none" stroke-width="none" transform="translate(-268.0799865722656,24.17137759738499)" style="transform:matrix(1, 0, 0, 1, -268.08, 24.1714);fill:rgb(240, 172, 90);animation-play-state:paused" ></path></g>
<g class="path" style="transform-origin:-182px -6.94863px;transform:matrix(1.02912, 0, 0, 1.02912, 0, 0);animation-timing-function:linear;animation-play-state:paused;animation-name:breath-9506a63b-b4a7-4032-9c1f-9bb6b301dc7e;animation-iteration-count:infinite;animation-fill-mode:forwards;animation-duration:1.92308s;animation-delay:-0.987179s" ><path d="M116.16-62.24L116.16-42.88L102.40-42.88L102.40-49.12L97.28-49.12L97.28-13.12L102.88-13.12L102.88 0L69.28 0L69.28-13.12L74.88-13.12L74.88-49.12L69.76-49.12L69.76-42.88L56-42.88L56-62.24L116.16-62.24" fill="#ffffff" stroke="none" stroke-width="none" transform="translate(-268.0799865722656,24.17137759738499)" style="transform:matrix(1, 0, 0, 1, -268.08, 24.1714);fill:rgb(255, 255, 255);animation-play-state:paused" ></path></g>
<g class="path" style="transform-origin:-119.28px -6.94862px;transform:matrix(1.01348, 0, 0, 1.01348, 0, 0);animation-timing-function:linear;animation-play-state:paused;animation-name:breath-9506a63b-b4a7-4032-9c1f-9bb6b301dc7e;animation-iteration-count:infinite;animation-fill-mode:forwards;animation-duration:1.92308s;animation-delay:-0.846154s" ><path d="M179.20-31.92L179.20-20L175.20-20L175.20-4L175.20-4Q171.68-2 164.92-0.44L164.92-0.44L164.92-0.44Q158.16 1.12 150.32 1.12L150.32 1.12L150.32 1.12Q135.36 1.12 126.88-6.76L126.88-6.76L126.88-6.76Q118.40-14.64 118.40-31.12L118.40-31.12L118.40-31.12Q118.40-48 126.84-55.68L126.84-55.68L126.84-55.68Q135.28-63.36 150.96-63.36L150.96-63.36L150.96-63.36Q158.56-63.36 165.20-61.76L165.20-61.76L165.20-61.76Q171.84-60.16 175.20-58.16L175.20-58.16L175.20-39.04L155.20-39.04L155.20-42.80L155.20-42.80Q155.20-46.16 153.80-47.64L153.80-47.64L153.80-47.64Q152.40-49.12 149.36-49.12L149.36-49.12L149.36-49.12Q146.32-49.12 144.92-47.64L144.92-47.64L144.92-47.64Q143.52-46.16 143.52-42.80L143.52-42.80L143.52-19.44L143.52-19.44Q143.52-16.08 144.92-14.60L144.92-14.60L144.92-14.60Q146.32-13.12 149.36-13.12L149.36-13.12L149.36-13.12Q152.40-13.12 153.80-14.60L153.80-14.60L153.80-14.60Q155.20-16.08 155.20-19.44L155.20-19.44L155.20-20L150.88-20L150.88-31.92L179.20-31.92" fill="#ffffff" stroke="none" stroke-width="none" transform="translate(-268.0799865722656,24.17137759738499)" style="transform:matrix(1, 0, 0, 1, -268.08, 24.1714);fill:rgb(255, 218, 139);animation-play-state:paused" ></path></g>
<g class="path" style="transform-origin:-78.8px 17.6114px;transform:matrix(0.996231, 0, 0, 0.996231, 0, 0);animation-timing-function:linear;animation-play-state:paused;animation-name:breath-9506a63b-b4a7-4032-9c1f-9bb6b301dc7e;animation-iteration-count:infinite;animation-fill-mode:forwards;animation-duration:1.92308s;animation-delay:-0.705128s" ><path d="M195.52 0L183.04 0L183.04-13.12L195.52-13.12L195.52 0" fill="#ffffff" stroke="none" stroke-width="none" transform="translate(-268.0799865722656,24.17137759738499)" style="transform:matrix(1, 0, 0, 1, -268.08, 24.1714);fill:rgb(240, 172, 90);animation-play-state:paused" ></path></g>
<g class="path" style="transform-origin:-20.44px -6.94863px;transform:matrix(0.978985, 0, 0, 0.978985, 0, 0);animation-timing-function:linear;animation-play-state:paused;animation-name:breath-9506a63b-b4a7-4032-9c1f-9bb6b301dc7e;animation-iteration-count:infinite;animation-fill-mode:forwards;animation-duration:1.92308s;animation-delay:-0.564103s" ><path d="M269.36-49.12L269.36-62.24L294.96-62.24L294.96-49.12L291.76-49.12L279.84 0L255.92 0L248.64-34.56L247.84-34.56L240.16 0L216.24 0L203.52-49.12L200.32-49.12L200.32-62.24L229.92-62.24L229.92-49.12L226.88-49.12L230-28.72L230.80-28.72L238.40-62.24L261.44-62.24L268.48-28.72L269.28-28.72L272.40-49.12L269.36-49.12" fill="#ffffff" stroke="none" stroke-width="none" transform="translate(-268.0799865722656,24.17137759738499)" style="transform:matrix(1, 0, 0, 1, -268.08, 24.1714);fill:rgb(255, 255, 255);animation-play-state:paused" ></path></g>
<g class="path" style="transform-origin:57.92px -6.94862px;transform:matrix(0.961739, 0, 0, 0.961739, 0, 0);animation-timing-function:linear;animation-play-state:paused;animation-name:breath-9506a63b-b4a7-4032-9c1f-9bb6b301dc7e;animation-iteration-count:infinite;animation-fill-mode:forwards;animation-duration:1.92308s;animation-delay:-0.423077s" ><path d="M326 1.12L326 1.12Q311.36 1.12 303.40-6.56L303.40-6.56L303.40-6.56Q295.44-14.24 295.44-31.12L295.44-31.12L295.44-31.12Q295.44-48 303.40-55.68L303.40-55.68L303.40-55.68Q311.36-63.36 326-63.36L326-63.36L326-63.36Q340.64-63.36 348.60-55.68L348.60-55.68L348.60-55.68Q356.56-48 356.56-31.12L356.56-31.12L356.56-31.12Q356.56-14.24 348.60-6.56L348.60-6.56L348.60-6.56Q340.64 1.12 326 1.12L326 1.12zM326-13.12L326-13.12Q328.72-13.12 330.08-14.56L330.08-14.56L330.08-14.56Q331.44-16 331.44-19.04L331.44-19.04L331.44-43.20L331.44-43.20Q331.44-46.24 330.08-47.68L330.08-47.68L330.08-47.68Q328.72-49.12 326-49.12L326-49.12L326-49.12Q323.28-49.12 321.92-47.68L321.92-47.68L321.92-47.68Q320.56-46.24 320.56-43.20L320.56-43.20L320.56-19.04L320.56-19.04Q320.56-15.92 321.92-14.52L321.92-14.52L321.92-14.52Q323.28-13.12 326-13.12L326-13.12" fill="#ffffff" stroke="none" stroke-width="none" transform="translate(-268.0799865722656,24.17137759738499)" style="transform:matrix(1, 0, 0, 1, -268.08, 24.1714);fill:rgb(255, 218, 139);animation-play-state:paused" ></path></g>
<g class="path" style="transform-origin:121.76px -6.94863px;transform:matrix(0.944493, 0, 0, 0.944493, 0, 0);animation-timing-function:linear;animation-play-state:paused;animation-name:breath-9506a63b-b4a7-4032-9c1f-9bb6b301dc7e;animation-iteration-count:infinite;animation-fill-mode:forwards;animation-duration:1.92308s;animation-delay:-0.282051s" ><path d="M359.28 0L359.28-13.12L363.28-13.12L363.28-49.12L359.28-49.12L359.28-62.24L396-62.24L396-62.24Q406.32-62.24 411.76-58L411.76-58L411.76-58Q417.20-53.76 417.20-44.24L417.20-44.24L417.20-44.24Q417.20-38.88 415.04-34.96L415.04-34.96L415.04-34.96Q412.88-31.04 408.88-29.52L408.88-29.52L408.96-28.72L408.96-28.72Q416.64-27.52 416.64-19.28L416.64-19.28L416.64-13.12L420.40-13.12L420.40 0L395.04 0L395.04-18.80L395.04-18.80Q395.04-21.92 394.12-23.52L394.12-23.52L394.12-23.52Q393.20-25.12 391.24-25.68L391.24-25.68L391.24-25.68Q389.28-26.24 385.68-26.24L385.68-26.24L385.68-13.12L390.96-13.12L390.96 0L359.28 0zM385.68-36L390-36L390-36Q392.32-36 393.48-37.24L393.48-37.24L393.48-37.24Q394.64-38.48 394.64-41.12L394.64-41.12L394.64-44L394.64-44Q394.64-46.64 393.48-47.88L393.48-47.88L393.48-47.88Q392.32-49.12 390-49.12L390-49.12L385.68-49.12L385.68-36" fill="#ffffff" stroke="none" stroke-width="none" transform="translate(-268.0799865722656,24.17137759738499)" style="transform:matrix(1, 0, 0, 1, -268.08, 24.1714);fill:rgb(240, 172, 90);animation-play-state:paused" ></path></g>
<g class="path" style="transform-origin:179.96px -6.94863px;transform:matrix(0.927246, 0, 0, 0.927246, 0, 0);animation-timing-function:linear;animation-play-state:paused;animation-name:breath-9506a63b-b4a7-4032-9c1f-9bb6b301dc7e;animation-iteration-count:infinite;animation-fill-mode:forwards;animation-duration:1.92308s;animation-delay:-0.141026s" ><path d="M472.80 0L423.28 0L423.28-13.12L427.28-13.12L427.28-49.12L423.28-49.12L423.28-62.24L457.04-62.24L457.04-49.12L449.68-49.12L449.68-13.12L456.88-13.12L456.88-20.48L472.80-20.48L472.80 0" fill="#ffffff" stroke="none" stroke-width="none" transform="translate(-268.0799865722656,24.17137759738499)" style="transform:matrix(1, 0, 0, 1, -268.08, 24.1714);fill:rgb(255, 255, 255);animation-play-state:paused" ></path></g>
<g class="path" style="transform-origin:238.24px -6.94863px;transform:matrix(0.91, 0, 0, 0.91, 0, 0);animation-timing-function:linear;animation-play-state:paused;animation-name:breath-9506a63b-b4a7-4032-9c1f-9bb6b301dc7e;animation-iteration-count:infinite;animation-fill-mode:forwards;animation-duration:1.92308s" ><path d="M475.52 0L475.52-13.12L479.52-13.12L479.52-49.04L475.52-49.04L475.52-62.24L508-62.24L508-62.24Q521.36-62.24 529.24-54.92L529.24-54.92L529.24-54.92Q537.12-47.60 537.12-31.12L537.12-31.12L537.12-31.12Q537.12-14.64 529.24-7.32L529.24-7.32L529.24-7.32Q521.36 0 508 0L508 0L475.52 0zM501.92-13.12L506.56-13.12L506.56-13.12Q509.28-13.12 510.64-14.56L510.64-14.56L510.64-14.56Q512-16 512-19.04L512-19.04L512-43.20L512-43.20Q512-49.12 506.56-49.12L506.56-49.12L501.92-49.12L501.92-13.12" fill="#ffffff" stroke="none" stroke-width="none" transform="translate(-268.0799865722656,24.17137759738499)" style="transform:matrix(1, 0, 0, 1, -268.08, 24.1714);fill:rgb(255, 218, 139);animation-play-state:paused" ></path></g></g></g></g></svg>